<svg width="33" height="33" viewBox="0 0 33 33" fill="none" xmlns="http://www.w3.org/2000/svg">
<g opacity="0.4" filter="url(#filter0_dd)">
<path fill-rule="evenodd" clip-rule="evenodd" d="M4 12.5C4 5.597 9.597 0 16.5 0C23.403 0 29 5.597 29 12.5C29 19.403 23.403 25 16.5 25C9.597 25 4 19.403 4 12.5ZM25 12.5C25 7.813 21.187 4 16.5 4C11.813 4 8 7.813 8 12.5C8 17.187 11.813 21 16.5 21C21.187 21 25 17.187 25 12.5Z" fill="#4D4D4D"/>
<path d="M16.5 17C18.9853 17 21 14.9853 21 12.5C21 10.0147 18.9853 8 16.5 8C14.0147 8 12 10.0147 12 12.5C12 14.9853 14.0147 17 16.5 17Z" fill="#4D4D4D"/>
</g>
<defs>
<filter id="filter0_dd" x="0" y="0" width="33" height="33" filterUnits="userSpaceOnUse" color-interpolation-filters="sRGB">
<feFlood flood-opacity="0" result="BackgroundImageFix"/>
<feColorMatrix in="SourceAlpha" type="matrix" values="0 0 0 0 0 0 0 0 0 0 0 0 0 0 0 0 0 0 127 0"/>
<feOffset dy="4"/>
<feGaussianBlur stdDeviation="2"/>
<feColorMatrix type="matrix" values="0 0 0 0 0 0 0 0 0 0 0 0 0 0 0 0 0 0 0.25 0"/>
<feBlend mode="normal" in2="BackgroundImageFix" result="effect1_dropShadow"/>
<feColorMatrix in="SourceAlpha" type="matrix" values="0 0 0 0 0 0 0 0 0 0 0 0 0 0 0 0 0 0 127 0"/>
<feOffset dy="4"/>
<feGaussianBlur stdDeviation="2"/>
<feColorMatrix type="matrix" values="0 0 0 0 0 0 0 0 0 0 0 0 0 0 0 0 0 0 0.25 0"/>
<feBlend mode="normal" in2="effect1_dropShadow" result="effect2_dropShadow"/>
<feBlend mode="normal" in="SourceGraphic" in2="effect2_dropShadow" result="shape"/>
</filter>
</defs>
</svg>
